<svg width="19" height="23" viewBox="0 0 19 23" fill="none" xmlns="http://www.w3.org/2000/svg">
<path d="M1.45424 8.41348C-0.369576 11.5783 0.789885 16.3812 2.80669 19.2933C3.81344 20.7493 4.83267 22.0562 6.22872 22.0562C6.25496 22.0562 6.28139 22.0556 6.30845 22.0546C6.96427 22.0284 7.43825 21.8265 7.89649 21.6314C8.41101 21.4121 8.94314 21.1854 9.77775 21.1854C10.5718 21.1854 11.0785 21.4048 11.5686 21.6168C12.0515 21.8257 12.549 22.0419 13.284 22.0281C14.8565 21.9988 15.822 20.5886 16.6737 19.3444C17.5626 18.0455 18.0086 16.7843 18.159 16.3023L18.1651 16.2831C18.1937 16.1975 18.1533 16.104 18.0711 16.0663C18.0689 16.0653 18.0605 16.0617 18.0582 16.0608C17.7813 15.9475 15.3522 14.8699 15.3267 11.9329C15.3031 9.54669 17.149 8.28314 17.5191 8.05411L17.5364 8.04332C17.5765 8.01752 17.6044 7.97653 17.614 7.9297C17.6234 7.88296 17.6135 7.83433 17.5866 7.79496C16.3125 5.93033 14.3596 5.64934 13.5733 5.61554C13.4593 5.60413 13.3415 5.59846 13.2232 5.59846C12.2997 5.59846 11.4151 5.94723 10.7044 6.22741C10.2138 6.42085 9.79006 6.58795 9.49784 6.58795C9.16939 6.58795 8.74323 6.41887 8.24975 6.223C7.58988 5.96116 6.84184 5.66435 6.05002 5.66435C6.03114 5.66435 6.01254 5.66453 5.9942 5.66489C4.15312 5.69204 2.41334 6.74534 1.45424 8.41348Z" fill="white"/>
<path d="M13.5753 0.483326C12.4603 0.52872 11.1229 1.21501 10.3235 2.15137C9.64414 2.93834 8.98041 4.25061 9.15533 5.57321C9.1663 5.656 9.23362 5.71991 9.31686 5.72629C9.39209 5.73222 9.46895 5.73519 9.54544 5.73519C10.6356 5.73519 11.8117 5.13214 12.6148 4.16099C13.4601 3.13546 13.8876 1.81951 13.7583 0.64063C13.7481 0.548315 13.6668 0.479641 13.5753 0.483326Z" fill="white"/>
</svg>
