<svg width="21" height="23" viewBox="0 0 21 23" fill="none" xmlns="http://www.w3.org/2000/svg">
<path d="M15.4398 14.5667C17.9953 13.1633 19.9324 12.0941 20.0996 12.011C20.6344 11.7268 21.1854 10.9749 20.0996 10.3909C19.749 10.2073 17.8614 9.17124 15.4398 7.83524L12.0825 11.2259L15.4398 14.5667Z" fill="#FFD900"/>
<path d="M12.0819 11.2259L1.3916 22C1.64239 22.0333 1.92644 21.9667 2.25992 21.7832C2.96104 21.3993 10.3948 17.3399 15.4392 14.5675L12.0819 11.2259Z" fill="#F43249"/>
<path d="M12.082 11.2259L15.4393 7.85186C15.4393 7.85186 3.01235 1.06984 2.25999 0.669393C1.97684 0.501572 1.65953 0.451685 1.37549 0.501572L12.082 11.2259Z" fill="#00EE76"/>
<path d="M12.0816 11.2259L1.37504 0.501572C0.940881 0.602066 0.573242 0.985976 0.573242 1.77105C0.573242 3.02391 0.573242 19.6945 0.573242 20.7305C0.573242 21.4492 0.857297 21.9667 1.39213 22.0166L12.0816 11.2259Z" fill="#00D3FF"/>
</svg>
