<svg width="40" height="40" viewBox="0 0 40 40" fill="none" xmlns="http://www.w3.org/2000/svg">
<path fill-rule="evenodd" clip-rule="evenodd" d="M40 20C40 31.0457 31.0457 40 20 40C8.9543 40 0 31.0457 0 20C0 8.9543 8.9543 0 20 0C31.0457 0 40 8.9543 40 20ZM13.25 9.875C14.9759 9.875 16.375 11.2741 16.375 13V20.625C16.375 22.3509 14.9759 23.75 13.25 23.75C11.5241 23.75 10.125 22.3509 10.125 20.625V13C10.125 11.2741 11.5241 9.875 13.25 9.875ZM20 16.25C21.7259 16.25 23.125 17.6491 23.125 19.375V20.625C23.125 22.3509 21.7259 23.75 20 23.75C18.2741 23.75 16.875 22.3509 16.875 20.625V19.375C16.875 17.6491 18.2741 16.25 20 16.25ZM29.875 19.375C29.875 17.6491 28.4759 16.25 26.75 16.25C25.0241 16.25 23.625 17.6491 23.625 19.375V26.9375C23.625 28.6634 25.0241 30.0625 26.75 30.0625C28.4759 30.0625 29.875 28.6634 29.875 26.9375V19.375Z" fill="#0AA110"/>
</svg>
